<svg width="28" height="28" viewBox="0 0 28 28" fill="none" xmlns="http://www.w3.org/2000/svg">
<path d="M22.6 25H22.4H22.2H21.2168C21.2057 25.0657 21.2 25.1325 21.2 25.2C21.2 25.5183 21.3264 25.8235 21.5515 26.0485M22.6 25L22.4 25.2L22.6 25ZM22.6 25H23.5832C23.5943 25.0657 23.6 25.1325 23.6 25.2C23.6 25.5276 23.4638 25.8276 23.2457 26.0457C23.0276 26.2638 22.7276 26.4 22.4 26.4C22.0817 26.4 21.7765 26.2736 21.5515 26.0485M22.6 25L23.2485 24.3515L22.6 25ZM21.5515 26.0485L20.4201 27.1799L21.5515 26.0485ZM7.2381 24.9C7.55339 24.9547 7.87375 24.9873 8.19697 24.997C8.26453 24.999 8.33221 25 8.4 25H8.60001H9.58322C9.59432 25.0657 9.6 25.1325 9.6 25.2C9.6 25.5276 9.46379 25.8276 9.24568 26.0457C9.02757 26.2638 8.72757 26.4 8.4 26.4C8.08174 26.4 7.77652 26.2736 7.55147 26.0485C7.32643 25.8235 7.2 25.5183 7.2 25.2C7.2 25.0979 7.21301 24.9972 7.2381 24.9Z" fill="#B263E8" stroke="#B263E8" stroke-width="8"/>
</svg>
